<?xml version="1.0" encoding="utf-8"?>
<!-- Generator: Adobe Illustrator 16.0.0, SVG Export Plug-In . SVG Version: 6.00 Build 0)  -->
<!DOCTYPE svg PUBLIC "-//W3C//DTD SVG 1.1 Tiny//EN" "http://www.w3.org/Graphics/SVG/1.1/DTD/svg11-tiny.dtd">
<svg version="1.1" baseProfile="tiny" id="Layer_1" xmlns="http://www.w3.org/2000/svg" xmlns:xlink="http://www.w3.org/1999/xlink"
	 x="0px" y="0px" width="24px" height="24px" viewBox="0 0 24 24" xml:space="preserve">
<g>
	<path d="M17.993,13.168c1.082-1.451,2.499-3.554,3.611-5.62c0.003-0.008,0.009-0.015,0.012-0.022
		c1.15-2.141,1.97-4.239,1.741-5.528c-0.012-0.063-0.038-0.123-0.078-0.175c-0.154-0.198-0.321-0.395-0.503-0.576
		c-0.184-0.183-0.378-0.351-0.579-0.503c-0.05-0.039-0.11-0.065-0.173-0.076c-1.289-0.232-3.389,0.589-5.531,1.74
		c-0.002,0.001-0.003,0.002-0.005,0.003c-2.023,1.088-4.078,2.468-5.528,3.543c-0.194,0.041-3.062,0.638-4.69,0.102
		C5.009,5.64,3.533,7.426,1.884,11.369c-0.157,0.373-0.146,0.676,0.034,0.898c0.183,0.228,0.485,0.304,0.899,0.226
		c0.768-0.143,1.859-0.162,2.813,0.457c-0.009,0.126-0.023,0.253-0.023,0.378c0,0.106,0.042,0.208,0.117,0.283l4.688,4.688
		c0.075,0.074,0.177,0.117,0.283,0.117c0.119,0,0.241-0.013,0.361-0.021c0.589,0.944,0.565,2.014,0.426,2.765
		c-0.076,0.414,0,0.718,0.227,0.899c0.119,0.096,0.26,0.144,0.423,0.144c0.143,0,0.301-0.036,0.475-0.109
		c3.943-1.65,5.732-3.127,5.315-4.387C17.447,16.258,17.865,13.826,17.993,13.168z M21.792,1.44
		c0.145,0.115,0.286,0.239,0.419,0.372c0.132,0.132,0.256,0.274,0.372,0.419c0.115,0.962-0.477,2.608-1.442,4.479L17.31,2.88
		C19.182,1.915,20.829,1.322,21.792,1.44z M17.162,17.956c0.197,0.596-1.231,1.878-4.865,3.398
		c-0.014,0.006-0.026,0.012-0.038,0.016c0.002-0.02,0.005-0.041,0.01-0.066c0.175-0.944,0.202-2.325-0.66-3.535
		c-0.045-0.063-0.109-0.104-0.177-0.131c-0.07-0.038-0.148-0.063-0.235-0.052c-0.114,0.013-0.228,0.021-0.34,0.026l-4.446-4.447
		c0.004-0.125,0.015-0.252,0.031-0.379c0.002-0.014-0.003-0.026-0.003-0.04c0-0.03,0-0.06-0.007-0.089
		c-0.006-0.029-0.017-0.055-0.028-0.082c-0.008-0.017-0.015-0.033-0.025-0.049c-0.021-0.034-0.048-0.063-0.079-0.089
		c-0.006-0.005-0.008-0.012-0.014-0.016c-0.005-0.004-0.01-0.006-0.016-0.01c-0.014-0.01-0.027-0.02-0.043-0.028
		c-1.212-0.874-2.598-0.854-3.555-0.678c-0.024,0.005-0.045,0.008-0.064,0.011c0.004-0.012,0.009-0.024,0.015-0.038
		c1.52-3.636,2.812-5.06,3.397-4.864c1.701,0.56,4.393,0.066,5.003-0.058c0.101,0.015,0.208-0.009,0.297-0.075
		c1.665-1.243,3.525-2.459,5.252-3.408l4.176,4.176c-0.923,1.68-2.098,3.484-3.304,5.113c-0.097,0.055-0.172,0.146-0.198,0.262
		C17.217,12.956,16.543,16.071,17.162,17.956z"/>
	<path d="M17.614,6.406c-1.075-1.075-2.829-1.068-3.909,0.012c-1.08,1.08-1.085,2.834-0.011,3.909
		c0.536,0.535,1.24,0.803,1.946,0.803c0.71,0,1.421-0.271,1.964-0.813C18.684,9.236,18.689,7.481,17.614,6.406z M14.26,9.762
		c-0.763-0.764-0.758-2.01,0.01-2.777c0.387-0.387,0.894-0.581,1.4-0.581c0.5,0,0.999,0.189,1.378,0.569
		c0.763,0.763,0.758,2.01-0.011,2.779C16.269,10.521,15.022,10.523,14.26,9.762z"/>
	<path d="M5.335,15.892c-0.286,0-0.807,0.038-1.128,0.304c-1.504,1.245-3.032,5.212-3.095,5.38
		c-0.199,0.521-0.085,0.854,0.044,1.043c0.158,0.229,0.415,0.355,0.725,0.355c0.159,0,0.329-0.033,0.508-0.098
		c0.9-0.325,5.407-2.037,5.695-3.823c0.156-1.148-0.218-1.857-0.561-2.249C7.024,16.231,6.206,15.892,5.335,15.892z M7.159,18.916
		c-0.146,0.91-3.063,2.35-5.088,3.082c-0.051,0.018-0.091,0.028-0.125,0.033C1.955,22,1.966,21.957,1.984,21.909
		c0.414-1.083,1.727-4.09,2.818-4.993c0.042-0.029,0.229-0.091,0.533-0.091c0.226,0,1.004,0.043,1.484,0.593
		C7.131,17.776,7.245,18.282,7.159,18.916z"/>
</g>
</svg>
